<?xml version="1.0" encoding="UTF-8"?>
<svg xmlns="http://www.w3.org/2000/svg" xmlns:xlink="http://www.w3.org/1999/xlink" width="32px" height="32px" viewBox="0 0 32 32" version="1.1">
<defs>
<filter id="alpha" filterUnits="objectBoundingBox" x="0%" y="0%" width="100%" height="100%">
  <feColorMatrix type="matrix" in="SourceGraphic" values="0 0 0 0 1 0 0 0 0 1 0 0 0 0 1 0 0 0 1 0"/>
</filter>
<mask id="mask0">
  <g filter="url(#alpha)">
<rect x="0" y="0" width="32" height="32" style="fill:rgb(0%,0%,0%);fill-opacity:0.34902;stroke:none;"/>
  </g>
</mask>
<clipPath id="clip1">
  <rect x="0" y="0" width="32" height="32"/>
</clipPath>
<g id="surface5" clip-path="url(#clip1)">
<path style=" stroke:none;fill-rule:nonzero;fill:rgb(0%,0%,0%);fill-opacity:1;" d="M 11.679688 31.359375 C 10.421875 31.359375 9.386719 30.386719 9.289062 29.15625 C 9.382812 28.476562 5.441406 24.601562 5.441406 21.761719 C 5.441406 18.257812 7.542969 15.054688 10.878906 13.351562 L 10.878906 11.359375 C 10.878906 10.402344 11.441406 9.574219 12.253906 9.191406 C 11.992188 8.804688 11.835938 8.339844 11.835938 7.839844 L 11.835938 6.078125 C 11.835938 3.960938 13.558594 2.238281 15.675781 2.238281 C 17.203125 2.238281 18.523438 3.90625 19.144531 5.199219 C 20.089844 4.050781 21.695312 2.558594 23.519531 2.558594 C 26.480469 2.558594 28.800781 4.457031 28.800781 6.878906 C 28.800781 9.300781 26.480469 11.199219 23.519531 11.199219 C 22.335938 11.199219 21.246094 10.898438 20.371094 10.375 C 20.441406 10.582031 20.480469 10.808594 20.480469 11.039062 L 20.480469 13.351562 C 23.816406 15.054688 25.921875 18.257812 25.921875 21.761719 C 25.921875 24.601562 24.496094 27.308594 22.074219 29.15625 C 21.972656 30.386719 20.9375 31.359375 19.679688 31.359375 Z M 11.679688 31.359375 "/>
</g>
</defs>
<g id="surface1">
<use xlink:href="#surface5" mask="url(#mask0)"/>
<path style=" stroke:none;fill-rule:nonzero;fill:rgb(94.901961%,94.901961%,94.901961%);fill-opacity:1;" d="M 11.039062 30.71875 C 9.78125 30.71875 8.746094 29.746094 8.648438 28.515625 C 6.222656 26.667969 4.800781 23.960938 4.800781 21.121094 C 4.800781 17.617188 6.902344 14.417969 10.238281 12.710938 L 10.238281 10.71875 C 10.238281 9.761719 10.800781 8.9375 11.613281 8.550781 C 11.351562 8.164062 11.195312 7.699219 11.195312 7.199219 L 11.195312 5.441406 C 11.195312 3.324219 12.917969 1.601562 15.035156 1.601562 C 16.5625 1.601562 17.886719 2.496094 18.503906 3.789062 C 19.449219 2.640625 21.054688 1.921875 22.878906 1.921875 C 25.839844 1.921875 28.160156 3.816406 28.160156 6.238281 C 28.160156 8.664062 25.839844 10.558594 22.878906 10.558594 C 21.699219 10.558594 20.609375 10.257812 19.730469 9.734375 C 19.800781 9.941406 19.839844 10.167969 19.839844 10.398438 L 19.839844 12.710938 C 23.179688 14.417969 25.28125 17.617188 25.28125 21.121094 C 25.28125 23.960938 23.855469 26.667969 21.433594 28.515625 C 21.332031 29.746094 20.296875 30.71875 19.039062 30.71875 Z M 11.039062 30.71875 "/>
<path style=" stroke:none;fill-rule:nonzero;fill:rgb(100%,45.882353%,45.882353%);fill-opacity:1;" d="M 26.078125 6.238281 C 26.078125 5.003906 24.648438 4 22.878906 4 C 21.113281 4 19.679688 5.003906 19.679688 6.238281 C 19.679688 7.476562 21.113281 8.480469 22.878906 8.480469 C 24.648438 8.480469 26.078125 7.476562 26.078125 6.238281 Z M 26.078125 6.238281 "/>
<path style=" stroke:none;fill-rule:nonzero;fill:rgb(25.098041%,22.352941%,43.137255%);fill-opacity:1;" d="M 22.878906 8.960938 C 20.816406 8.960938 19.199219 7.765625 19.199219 6.238281 C 19.199219 4.714844 20.816406 3.519531 22.878906 3.519531 C 24.945312 3.519531 26.558594 4.714844 26.558594 6.238281 C 26.558594 7.765625 24.945312 8.960938 22.878906 8.960938 Z M 22.878906 4.480469 C 21.40625 4.480469 20.160156 5.285156 20.160156 6.238281 C 20.160156 7.195312 21.40625 8 22.878906 8 C 24.355469 8 25.601562 7.195312 25.601562 6.238281 C 25.601562 5.285156 24.355469 4.480469 22.878906 4.480469 Z M 22.878906 4.480469 "/>
<path style=" stroke:none;fill-rule:nonzero;fill:rgb(100%,77.254903%,44.313726%);fill-opacity:1;" d="M 13.597656 7.519531 L 16.476562 7.519531 C 16.652344 7.519531 16.796875 7.375 16.796875 7.199219 L 16.796875 5.441406 C 16.796875 4.46875 16.007812 3.679688 15.039062 3.679688 C 14.066406 3.679688 13.277344 4.46875 13.277344 5.441406 L 13.277344 7.199219 C 13.277344 7.375 13.421875 7.519531 13.597656 7.519531 Z M 13.597656 7.519531 "/>
<path style=" stroke:none;fill-rule:nonzero;fill:rgb(93.725491%,52.549022%,18.82353%);fill-opacity:1;" d="M 14.238281 5.761719 C 14.238281 5.496094 14.023438 5.28125 13.761719 5.28125 C 13.496094 5.28125 13.28125 5.496094 13.28125 5.761719 C 13.28125 6.023438 13.496094 6.238281 13.761719 6.238281 C 14.023438 6.238281 14.238281 6.023438 14.238281 5.761719 Z M 14.238281 5.761719 "/>
<path style=" stroke:none;fill-rule:nonzero;fill:rgb(25.098041%,22.352941%,43.137255%);fill-opacity:1;" d="M 16.476562 8 L 13.597656 8 C 13.15625 8 12.796875 7.640625 12.796875 7.199219 L 12.796875 5.441406 C 12.796875 4.207031 13.800781 3.199219 15.035156 3.199219 C 16.273438 3.199219 17.277344 4.207031 17.277344 5.441406 L 17.277344 7.199219 C 17.277344 7.640625 16.917969 8 16.476562 8 Z M 13.757812 7.039062 L 16.316406 7.039062 L 16.316406 5.441406 C 16.316406 4.734375 15.742188 4.160156 15.035156 4.160156 C 14.332031 4.160156 13.757812 4.734375 13.757812 5.441406 Z M 13.757812 7.039062 "/>
<path style=" stroke:none;fill-rule:nonzero;fill:rgb(85.09804%,93.333334%,100%);fill-opacity:1;" d="M 23.199219 21.121094 C 23.199219 17.894531 20.789062 15.140625 17.761719 14.074219 L 17.761719 10.71875 C 17.761719 10.542969 17.617188 10.398438 17.441406 10.398438 L 12.640625 10.398438 C 12.464844 10.398438 12.320312 10.542969 12.320312 10.71875 L 12.320312 14.074219 C 9.289062 15.140625 6.878906 17.894531 6.878906 21.121094 C 6.878906 23.753906 8.484375 26.066406 10.71875 27.410156 L 10.71875 28.320312 C 10.71875 28.496094 10.863281 28.640625 11.039062 28.640625 L 19.039062 28.640625 C 19.214844 28.640625 19.359375 28.496094 19.359375 28.320312 L 19.359375 27.410156 C 21.59375 26.066406 23.199219 23.753906 23.199219 21.121094 Z M 23.199219 21.121094 "/>
<path style=" stroke:none;fill-rule:nonzero;fill:rgb(43.921569%,74.901962%,100%);fill-opacity:1;" d="M 19.335938 16.960938 L 10.746094 16.960938 C 9.488281 18.007812 8.640625 19.484375 8.640625 21.121094 C 8.640625 24.300781 11.84375 26.878906 15.039062 26.878906 C 18.238281 26.878906 21.441406 24.300781 21.441406 21.121094 C 21.441406 19.484375 20.59375 18.007812 19.335938 16.960938 Z M 19.335938 16.960938 "/>
<path style=" stroke:none;fill-rule:nonzero;fill:rgb(43.921569%,74.901962%,100%);fill-opacity:1;" d="M 14.558594 10.398438 L 15.519531 10.398438 L 15.519531 16.960938 L 14.558594 16.960938 Z M 14.558594 10.398438 "/>
<path style=" stroke:none;fill-rule:nonzero;fill:rgb(25.098041%,22.352941%,43.137255%);fill-opacity:1;" d="M 14.558594 7.519531 L 15.519531 7.519531 L 15.519531 10.398438 L 14.558594 10.398438 Z M 14.558594 7.519531 "/>
<path style=" stroke:none;fill-rule:nonzero;fill:rgb(25.098041%,22.352941%,43.137255%);fill-opacity:1;" d="M 16.800781 5.761719 L 19.679688 5.761719 L 19.679688 6.71875 L 16.800781 6.71875 Z M 16.800781 5.761719 "/>
<path style=" stroke:none;fill-rule:nonzero;fill:rgb(15.294118%,52.156866%,74.117649%);fill-opacity:1;" d="M 14.558594 16.960938 L 15.519531 16.960938 L 15.519531 24.320312 L 14.558594 24.320312 Z M 14.558594 16.960938 "/>
<path style=" stroke:none;fill-rule:nonzero;fill:rgb(25.098041%,22.352941%,43.137255%);fill-opacity:1;" d="M 19.039062 29.121094 L 11.039062 29.121094 C 10.597656 29.121094 10.238281 28.761719 10.238281 28.320312 L 10.238281 27.675781 C 7.832031 26.132812 6.398438 23.699219 6.398438 21.121094 C 6.398438 17.953125 8.570312 15.023438 11.839844 13.742188 L 11.839844 10.71875 C 11.839844 10.277344 12.199219 9.921875 12.640625 9.921875 L 17.761719 9.921875 C 18.023438 9.921875 18.238281 10.136719 18.238281 10.398438 L 18.238281 13.742188 C 21.507812 15.023438 23.679688 17.953125 23.679688 21.121094 C 23.679688 23.699219 22.25 26.132812 19.839844 27.675781 L 19.839844 28.320312 C 19.839844 28.761719 19.480469 29.121094 19.039062 29.121094 Z M 11.199219 28.160156 L 18.878906 28.160156 L 18.878906 27.410156 C 18.878906 27.242188 18.96875 27.085938 19.113281 27 C 21.371094 25.640625 22.71875 23.445312 22.71875 21.121094 C 22.71875 18.300781 20.613281 15.589844 17.601562 14.527344 C 17.410156 14.460938 17.28125 14.277344 17.28125 14.074219 L 17.28125 10.878906 L 12.800781 10.878906 L 12.800781 14.074219 C 12.800781 14.277344 12.671875 14.460938 12.480469 14.527344 C 9.464844 15.589844 7.359375 18.300781 7.359375 21.121094 C 7.359375 23.445312 8.707031 25.640625 10.96875 27 C 11.113281 27.085938 11.199219 27.242188 11.199219 27.410156 Z M 11.199219 28.160156 "/>
</g>
</svg>
